<svg width="92" height="92" viewBox="0 0 92 92" fill="none" xmlns="http://www.w3.org/2000/svg">
<mask id="mask0_1_13" style="mask-type:alpha" maskUnits="userSpaceOnUse" x="0" y="0" width="92" height="92">
<rect width="92" height="92" fill="#D9D9D9"/>
</mask>
<g mask="url(#mask0_1_13)">
<path d="M45.9998 89.3167L33.1581 76.6666H15.3331V58.8417L2.68311 46L15.3331 33.1583V15.3333H33.1581L45.9998 2.68332L58.8414 15.3333H76.6664V33.1583L89.3164 46L76.6664 58.8417V76.6666H58.8414L45.9998 89.3167ZM45.9998 69C52.3887 69 57.8192 66.7639 62.2914 62.2917C66.7637 57.8194 68.9998 52.3889 68.9998 46C68.9998 39.6111 66.7637 34.1805 62.2914 29.7083C57.8192 25.2361 52.3887 23 45.9998 23C39.6109 23 34.1803 25.2361 29.7081 29.7083C25.2359 34.1805 22.9998 39.6111 22.9998 46C22.9998 52.3889 25.2359 57.8194 29.7081 62.2917C34.1803 66.7639 39.6109 69 45.9998 69ZM45.9998 61.3333C41.7831 61.3333 38.1734 59.8319 35.1706 56.8292C32.1678 53.8264 30.6664 50.2167 30.6664 46C30.6664 41.7833 32.1678 38.1736 35.1706 35.1708C38.1734 32.168 41.7831 30.6667 45.9998 30.6667C50.2164 30.6667 53.8262 32.168 56.8289 35.1708C59.8317 38.1736 61.3331 41.7833 61.3331 46C61.3331 50.2167 59.8317 53.8264 56.8289 56.8292C53.8262 59.8319 50.2164 61.3333 45.9998 61.3333ZM45.9998 78.5833L55.5831 69H68.9998V55.5833L78.5831 46L68.9998 36.4167V23H55.5831L45.9998 13.4167L36.4164 23H22.9998V36.4167L13.4164 46L22.9998 55.5833V69H36.4164L45.9998 78.5833Z" fill="white"/>
</g>
</svg>
