<svg width="74" height="74" viewBox="0 0 74 74" fill="none" xmlns="http://www.w3.org/2000/svg">
<mask id="mask0_10_29" style="mask-type:alpha" maskUnits="userSpaceOnUse" x="0" y="0" width="74" height="74">
<rect width="74" height="74" fill="#D9D9D9"/>
</mask>
<g mask="url(#mask0_10_29)">
<path d="M37 64.75C29.2917 64.75 22.7396 62.0521 17.3438 56.6562C11.9479 51.2604 9.25 44.7083 9.25 37C9.25 29.2917 11.9479 22.7396 17.3438 17.3438C22.7396 11.9479 29.2917 9.25 37 9.25C37.7194 9.25 38.4266 9.27569 39.1213 9.32708C39.8141 9.37847 40.4944 9.45556 41.1625 9.55833C39.0556 11.0486 37.3731 12.988 36.1151 15.3766C34.855 17.7672 34.225 20.35 34.225 23.125C34.225 27.75 35.8438 31.6812 39.0812 34.9187C42.3187 38.1562 46.25 39.775 50.875 39.775C53.7014 39.775 56.2965 39.145 58.6604 37.8849C61.0243 36.6269 62.9514 34.9444 64.4417 32.8375C64.5444 33.5056 64.6215 34.1859 64.6729 34.8787C64.7243 35.5734 64.75 36.2806 64.75 37C64.75 44.7083 62.0521 51.2604 56.6562 56.6562C51.2604 62.0521 44.7083 64.75 37 64.75ZM37 58.5833C41.5222 58.5833 45.5819 57.3377 49.1792 54.8463C52.7764 52.3529 55.3972 49.1021 57.0417 45.0938C56.0139 45.3507 54.9861 45.5562 53.9583 45.7104C52.9306 45.8646 51.9028 45.9417 50.875 45.9417C44.5542 45.9417 39.1707 43.7196 34.7245 39.2755C30.2804 34.8293 28.0583 29.4458 28.0583 23.125C28.0583 22.0972 28.1354 21.0694 28.2896 20.0417C28.4438 19.0139 28.6493 17.9861 28.9062 16.9583C24.8979 18.6028 21.6481 21.2236 19.1567 24.8208C16.6634 28.4181 15.4167 32.4778 15.4167 37C15.4167 42.9611 17.5236 48.0486 21.7375 52.2625C25.9514 56.4764 31.0389 58.5833 37 58.5833Z" fill="white"/>
</g>
</svg>
