<svg width="17" height="17" viewBox="0 0 17 17" fill="none" xmlns="http://www.w3.org/2000/svg">
<mask id="mask0_1_45" style="mask-type:alpha" maskUnits="userSpaceOnUse" x="0" y="0" width="17" height="17">
<rect width="17" height="17" fill="#D9D9D9"/>
</mask>
<g mask="url(#mask0_1_45)">
<path d="M1.41675 14.875V2.125H8.50008V4.95833H15.5834V14.875H1.41675ZM2.83341 13.4583H4.25008V12.0417H2.83341V13.4583ZM2.83341 10.625H4.25008V9.20833H2.83341V10.625ZM2.83341 7.79167H4.25008V6.375H2.83341V7.79167ZM2.83341 4.95833H4.25008V3.54167H2.83341V4.95833ZM5.66675 13.4583H7.08342V12.0417H5.66675V13.4583ZM5.66675 10.625H7.08342V9.20833H5.66675V10.625ZM5.66675 7.79167H7.08342V6.375H5.66675V7.79167ZM5.66675 4.95833H7.08342V3.54167H5.66675V4.95833ZM8.50008 13.4583H14.1667V6.375H8.50008V7.79167H9.91675V9.20833H8.50008V10.625H9.91675V12.0417H8.50008V13.4583ZM11.3334 9.20833V7.79167H12.7501V9.20833H11.3334ZM11.3334 12.0417V10.625H12.7501V12.0417H11.3334Z" fill="#BEBEBE"/>
</g>
</svg>
