<svg width="63" height="63" viewBox="0 0 63 63" fill="none" xmlns="http://www.w3.org/2000/svg">
<mask id="mask0_66_8" style="mask-type:alpha" maskUnits="userSpaceOnUse" x="0" y="0" width="63" height="63">
<rect width="62.2827" height="62.2827" fill="#D9D9D9"/>
</mask>
<g mask="url(#mask0_66_8)">
<path d="M31.1417 60.466L22.448 51.9021H10.3808V39.8348L1.81689 31.1412L10.3808 22.4476V10.3803H22.448L31.1417 1.81641L39.8353 10.3803H51.9026V22.4476L60.4664 31.1412L51.9026 39.8348V51.9021H39.8353L31.1417 60.466ZM31.1417 46.7119C35.4669 46.7119 39.1433 45.198 42.1709 42.1704C45.1985 39.1428 46.7123 35.4664 46.7123 31.1412C46.7123 26.816 45.1985 23.1396 42.1709 20.112C39.1433 17.0843 35.4669 15.5705 31.1417 15.5705V46.7119ZM31.1417 53.1996L37.6295 46.7119H46.7123V37.629L53.2001 31.1412L46.7123 24.6534V15.5705H37.6295L31.1417 9.08272L24.6539 15.5705H15.571V24.6534L9.08321 31.1412L15.571 37.629V46.7119H24.6539L31.1417 53.1996Z" fill="white"/>
</g>
</svg>
