<svg width="17" height="18" viewBox="0 0 17 18" fill="none" xmlns="http://www.w3.org/2000/svg">
<mask id="mask0_1_35" style="mask-type:alpha" maskUnits="userSpaceOnUse" x="0" y="0" width="17" height="18">
<rect y="0.5" width="17" height="17" fill="#D9D9D9"/>
</mask>
<g mask="url(#mask0_1_35)">
<path d="M8.50008 16.0833C7.52022 16.0833 6.59939 15.8973 5.73758 15.5252C4.87578 15.1535 4.12612 14.649 3.48862 14.0115C2.85112 13.374 2.34655 12.6243 1.97491 11.7625C1.6028 10.9007 1.41675 9.97986 1.41675 9C1.41675 8.02014 1.6028 7.09931 1.97491 6.2375C2.34655 5.3757 2.85112 4.62604 3.48862 3.98854C4.12612 3.35104 4.87578 2.84624 5.73758 2.47413C6.59939 2.10249 7.52022 1.91667 8.50008 1.91667C9.47994 1.91667 10.4008 2.10249 11.2626 2.47413C12.1244 2.84624 12.874 3.35104 13.5115 3.98854C14.149 4.62604 14.6536 5.3757 15.0252 6.2375C15.3974 7.09931 15.5834 8.02014 15.5834 9C15.5834 9.97986 15.3974 10.9007 15.0252 11.7625C14.6536 12.6243 14.149 13.374 13.5115 14.0115C12.874 14.649 12.1244 15.1535 11.2626 15.5252C10.4008 15.8973 9.47994 16.0833 8.50008 16.0833ZM7.79175 14.6313V13.25C7.40216 13.25 7.06878 13.1114 6.79158 12.8342C6.51392 12.5565 6.37508 12.2229 6.37508 11.8333V11.125L2.97508 7.725C2.93966 7.9375 2.90708 8.15 2.87733 8.3625C2.84805 8.575 2.83341 8.7875 2.83341 9C2.83341 10.4285 3.3028 11.6799 4.24158 12.7542C5.17989 13.8285 6.36328 14.4542 7.79175 14.6313ZM12.6792 12.825C12.9154 12.5653 13.1279 12.2848 13.3167 11.9835C13.5056 11.6827 13.6622 11.3698 13.7864 11.045C13.9101 10.7205 14.0045 10.3872 14.0697 10.0448C14.1344 9.70243 14.1667 9.35417 14.1667 9C14.1667 7.84306 13.8452 6.78646 13.202 5.83021C12.5584 4.87396 11.6994 4.18333 10.6251 3.75833V4.04167C10.6251 4.43125 10.4865 4.76464 10.2093 5.04183C9.93162 5.3195 9.598 5.45833 9.20842 5.45833H7.79175V6.875C7.79175 7.0757 7.72398 7.24381 7.58846 7.37933C7.45246 7.51533 7.28411 7.58333 7.08342 7.58333H5.66675V9H9.91675C10.1174 9 10.2858 9.06777 10.4218 9.20329C10.5573 9.33929 10.6251 9.50764 10.6251 9.70833V11.8333H11.3334C11.6404 11.8333 11.9178 11.9247 12.1657 12.1075C12.4136 12.2907 12.5848 12.5299 12.6792 12.825Z" fill="#BEBEBE"/>
</g>
</svg>
