<svg width="99" height="99" viewBox="0 0 99 99" fill="none" xmlns="http://www.w3.org/2000/svg">
<mask id="mask0_16_35" style="mask-type:alpha" maskUnits="userSpaceOnUse" x="0" y="0" width="99" height="99">
<rect width="99" height="99" fill="#D9D9D9"/>
</mask>
<g mask="url(#mask0_16_35)">
<path d="M75.6937 41.6625L69.9188 35.6812L78.7875 27.0188L84.5625 32.7937L75.6937 41.6625ZM8.25 82.5V74.25H90.75V82.5H8.25ZM45.375 28.875V16.5H53.625V28.875H45.375ZM23.3063 41.4563L14.6437 32.5875L20.4187 26.8125L29.2875 35.6812L23.3063 41.4563ZM30.6281 57.75H68.3719C66.7906 54.0375 64.3156 51.0469 60.9469 48.7781C57.5781 46.5094 53.7625 45.375 49.5 45.375C45.2375 45.375 41.4219 46.5094 38.0531 48.7781C34.6844 51.0469 32.2094 54.0375 30.6281 57.75ZM20.625 66C20.625 57.9562 23.4273 51.1321 29.0317 45.5276C34.6335 39.9259 41.4562 37.125 49.5 37.125C57.5438 37.125 64.3665 39.9259 69.9683 45.5276C75.5727 51.1321 78.375 57.9562 78.375 66H20.625Z" fill="white"/>
</g>
</svg>
